<?xml version="1.0" encoding="UTF-8"?>
<svg id="Layer_2" data-name="Layer 2" xmlns="http://www.w3.org/2000/svg" viewBox="0 0 801.28 146.03" height="1em">
  <defs>
    <style>
      .cls-1 {
        fill: #16161d;
        stroke-width: 0px;
      }
    </style>
  </defs>
  <g id="Layer_1-2" data-name="Layer 1">
    <g>
      <path class="cls-1" d="M51.11,146.03H0v-.83c3.2-2.36,4.8-5.14,4.8-8.34V9.18C4.8,5.98,3.2,3.2,0,.83v-.83h49.02c15.16,0,28.79,2.43,40.89,7.3,12.38,4.87,22.29,12.93,29.73,24.2,7.44,11.27,11.16,24.96,11.16,41.1,0,24.06-7.3,42.35-21.9,54.87-14.47,12.38-33.73,18.57-57.79,18.57ZM18.57,133.3h31.92c9.04,0,17.38-1.08,25.03-3.23,7.65-2.15,14.64-5.49,20.97-10.01,6.33-4.52,11.3-10.81,14.92-18.88,3.62-8.06,5.42-17.52,5.42-28.37,0-19.89-5.88-34.87-17.63-44.96-11.75-10.08-28.48-15.12-50.17-15.12h-30.46v120.58Z"/>
      <path class="cls-1" d="M210.91,8.97l39.64,128.09c.97,3.48,3.2,6.19,6.68,8.14v.83h-23.16v-.83c3.06-1.81,4.03-4.52,2.92-8.14l-10.43-33.79h-65.71l-10.43,33.79c-1.11,3.76-.14,6.47,2.92,8.14v.83h-23.16v-.83c3.47-2.09,5.7-4.8,6.68-8.14L176.48,8.97c1.25-3.75.21-6.47-3.13-8.14v-.83h40.47v.83c-3.2,1.53-4.17,4.24-2.92,8.14ZM188.79,12.93l-23.99,77.4h57.79l-23.99-77.4h-9.8Z"/>
      <path class="cls-1" d="M395.53.83v-.83h23.57v.83c-2.92,1.39-5.08,4.1-6.47,8.14l-48.19,128.3c-1.12,3.75-.28,6.4,2.5,7.93v.83h-26.29v-.83c2.92-1.81,3.75-4.45,2.5-7.93L294.98,8.97c-1.39-4.31-3.55-7.02-6.47-8.14v-.83h23.36v.83c-3.34,2.09-4.38,4.8-3.13,8.14l45.06,120.58,44.85-120.58c1.25-3.47.21-6.19-3.13-8.14Z"/>
      <path class="cls-1" d="M524.87,128.71h1.04l-2.71,17.31h-97.42v-.83c3.2-2.36,4.8-5.14,4.8-8.34V9.18c0-3.2-1.6-5.98-4.8-8.34v-.83h91.58l2.71,17.31h-1.25c-1.39-3.06-4.17-4.59-8.34-4.59h-66.13v38.59h57.79c3.62,0,6.4-1.39,8.34-4.17h.83v21.28h-.83c-1.81-2.92-4.59-4.38-8.34-4.38h-57.79v69.26h72.39c4.03,0,6.74-1.53,8.14-4.59Z"/>
      <path class="cls-1" d="M657.34,0v.83c-3.06,2.09-4.59,4.87-4.59,8.34v127.67c0,3.48,1.53,6.26,4.59,8.34v.83h-23.16v-.83c3.06-2.09,4.59-4.87,4.59-8.34v-.42c0-11.96-8.83-25.8-26.49-41.51-6.82-6.26-14.47-12.93-22.95-20.03-7.65-6.54-14.74-13-21.28-19.4-6.67-6.68-10.92-12.24-12.72-16.69v98.05c0,3.2,1.6,5.98,4.8,8.34v.83h-23.37v-.83c3.2-2.36,4.8-5.14,4.8-8.34V9.18c0-3.2-1.6-5.98-4.8-8.34v-.83h23.37v.83c-3.2,2.37-4.8,5.15-4.8,8.34v.42c0,11.55,8.69,25.03,26.08,40.47,7.23,6.54,14.81,13.07,22.74,19.61,7.23,5.98,14.39,12.45,21.49,19.4,6.68,6.54,11.06,12.17,13.14,16.9V9.18c0-3.47-1.53-6.26-4.59-8.34v-.83h23.16Z"/>
      <path class="cls-1" d="M766.44,128.71h1.04l-1.88,17.31h-98.05l-.63-.83L744.33,12.73h-65.3c-3.62,0-6.33,1.53-8.14,4.59h-.83l1.67-17.31h94.08l.63.83-77.6,132.47h69.47c4.03,0,6.74-1.53,8.14-4.59Z"/>
      <path class="cls-1" d="M801.28,146.03h-23.37v-.83c3.2-2.36,4.8-5.14,4.8-8.34V9.18c0-3.2-1.6-5.98-4.8-8.34v-.83h23.37v.83c-3.2,2.37-4.8,5.15-4.8,8.34v127.67c0,3.2,1.6,5.98,4.8,8.34v.83Z"/>
    </g>
  </g>
</svg>